<svg xmlns="http://www.w3.org/2000/svg" viewBox="0 0 28 17.23"><defs><style>.cls-1{fill:#7bb6f9;}.cls-2{fill:#404040;}</style></defs><g id="Lag_2" data-name="Lag 2"><g id="Lag_1-2" data-name="Lag 1"><path class="cls-1" d="M25.88,16.2H2.05a.82.82,0,0,1-.78-.4.46.46,0,0,1,0-.28l5.3-5.3,5.05,4.33,7.84-10,7.33,7.32v3.45l0,.07a.64.64,0,0,1,0,.39.84.84,0,0,1-.79.4Z"/><path class="cls-1" d="M19.49,5.33l3,3,3.77,3.76v3.32l0,.15s0,0,0,0a.52.52,0,0,1-.32.09h-24a.7.7,0,0,1-.24,0l2.37-2.36,2.39-2.4L8.4,12.48l2.48,2.12.79.68.64-.82,3.31-4.21,3.87-4.92m-.09-1.5q-3.94,5-7.87,10l-5-4.29L.8,15.27A1.09,1.09,0,0,0,.8,16a1.28,1.28,0,0,0,1.25.72H26A1.31,1.31,0,0,0,27.27,16a1.16,1.16,0,0,0,0-.72V11.69L19.4,3.83Z"/><path class="cls-2" d="M27,1V16.23H1V1H27m0-1H1A1,1,0,0,0,0,1V16.23a1,1,0,0,0,1,1H27a1,1,0,0,0,1-1V1a1,1,0,0,0-1-1Z"/><path class="cls-1" d="M5.89,6.27A1.71,1.71,0,1,1,7.61,4.56,1.71,1.71,0,0,1,5.89,6.27Z"/><path class="cls-1" d="M5.89,3.35A1.21,1.21,0,1,1,4.68,4.56,1.22,1.22,0,0,1,5.89,3.35m0-1A2.21,2.21,0,1,0,8.11,4.56,2.21,2.21,0,0,0,5.89,2.35Z"/></g></g></svg>