<svg xmlns="http://www.w3.org/2000/svg" viewBox="0 0 26.27 15.08"><defs><style>.cls-1{fill:#404040;}.cls-2{isolation:isolate;font-size:5px;fill:#7bb6f9;font-family:Roboto-Regular, Roboto;letter-spacing:0.1em;}.cls-3{fill:#fff;}</style></defs><g id="Lag_2" data-name="Lag 2"><g id="Lag_1-2" data-name="Lag 1"><path class="cls-1" d="M24.32,7.63v4H1v-4H24.32m1-1H0v6H25.32v-6Z"/><text class="cls-2" transform="translate(3.06 12.01)">*****</text><rect class="cls-3" x="17.23" y="6.48" width="6.33" height="6.33"/><path class="cls-1" d="M24.54,4.42h-.91c0-.71,0-1.66,0-1.83A2.84,2.84,0,0,0,21,0h-.27a3,3,0,0,0-2,.7,2.73,2.73,0,0,0-1,1.84c0,.16,0,1.16,0,1.88h-.89a1.7,1.7,0,0,0-1.73,1.66v7.34a1.7,1.7,0,0,0,1.73,1.66h7.63a1.69,1.69,0,0,0,1.72-1.66V6.08A1.71,1.71,0,0,0,24.54,4.42ZM19.3,2a1.62,1.62,0,0,1,1.39-.81h.07A1.66,1.66,0,0,1,22.17,2a7,7,0,0,1,.25,2.43H19.05A7.33,7.33,0,0,1,19.3,2Zm3.51,9.6-.12.11-1.13-1a1.18,1.18,0,0,0,.23-.71A1.24,1.24,0,0,0,20.56,8.8a1.23,1.23,0,0,0,0,2.45,1.12,1.12,0,0,0,.66-.2l1.16,1-.13.13-.15.16-.16-.14-.39-.36a2,2,0,0,1-1,.25A2.07,2.07,0,1,1,22.64,10a2.13,2.13,0,0,1-.22.94l.37.32.17.14Z"/></g></g></svg>